<?xml version="1.0" encoding="utf-8"?>
<!-- Generator: Adobe Illustrator 21.0.0, SVG Export Plug-In . SVG Version: 6.00 Build 0)  -->
<svg version="1.1" xmlns="http://www.w3.org/2000/svg" xmlns:xlink="http://www.w3.org/1999/xlink" x="0px" y="0px"
	 viewBox="0 0 512 512" style="enable-background:new 0 0 512 512;" xml:space="preserve">
<style type="text/css">
	.st0{opacity:0.66;fill:#01A0C6;}
	.st1{opacity:0.66;fill:#FF0000;}
</style>
<g id="Layer_5">
	<path class="st0" d="M276.5,82.2c-98.8,0-179,78.7-179,175.8c0,52.5,23.4,99.6,60.6,131.8c-0.2,14.9,0.1,47.8,6.2,50.6
		c7.5,3.5-2.1,10.8,51.3-17c19,6.8,39.5,10.5,60.9,10.5c98.8,0,179-78.7,179-175.8S375.3,82.2,276.5,82.2z M269.7,399.1
		c-76.8,0-139-62.3-139-139c0-76.8,62.3-139,139-139s139,62.3,139,139C408.7,336.8,346.5,399.1,269.7,399.1z"/>
</g>
<g id="Layer_3">
	<path class="st1" d="M234.5,82.2c-98.8,0-179,78.7-179,175.8c0,52.5,23.4,99.6,60.6,131.8c-0.2,14.9,0.1,47.8,6.2,50.6
		c7.5,3.5-2.1,10.8,51.3-17c19,6.8,39.5,10.5,60.9,10.5c98.8,0,179-78.7,179-175.8S333.3,82.2,234.5,82.2z M256.1,387.7
		c-50.2,0-93.8-28.1-116-69.4l-1.2,0.9c-1.5,1.7-3.8,2.8-6.3,2.8c-4.6,0-8.3-3.7-8.3-8.3c0-1.6,0.5-3.1,1.2-4.3l0,0l0.4-0.5l5.9-9.3
		c-4.8-13.6-7.4-28.3-7.4-43.5c0-72.7,59-131.7,131.7-131.7s131.7,59,131.7,131.7S328.9,387.7,256.1,387.7z"/>
</g>
<g id="Layer_2">
	<path d="M256.1,79.2c-98.8,0-179,78.7-179,175.8c0,52.5,23.4,99.6,60.6,131.8c-0.2,14.9,0.1,47.8,6.2,50.6
		c7.5,3.5-2.1,10.8,51.3-17c19,6.8,39.5,10.5,60.9,10.5c98.8,0,179-78.7,179-175.8S355,79.2,256.1,79.2z M363.6,216.2L363.6,216.2
		L309,302.3c0,0-18.3,20-42,0s-35-25.7-35-25.7s-8.3-10.7-20,2l-51.4,37.5c-1.5,1.7-3.8,2.8-6.3,2.8c-4.6,0-8.3-3.7-8.3-8.3
		c0-1.6,0.5-3.1,1.2-4.3l0,0l0.4-0.5l52.4-82.1c0,0,21-30,49.3-1.7c28.3,28.3,36.7,27,39.7,27s65.3-47,65.3-47l0.4,0.5
		c0.9-0.4,1.9-0.5,3-0.5c4.6,0,8.3,3.7,8.3,8.3C366,212.6,365.1,214.7,363.6,216.2z"/>
</g>
<g id="Layer_4">
</g>
</svg>
